HIERARCHY
ROOT Hips
{
 OFFSET 0.000000 0.000000 0.000000
 CHANNELS 6 Xposition Yposition Zposition Yrotation Xrotation Zrotation
 JOINT Chest
 {
  OFFSET 0.000000 10.452742 -1.161416
  CHANNELS 3 Yrotation Xrotation Zrotation
  JOINT Chest2
  {
   OFFSET 0.000000 11.642015 0.000000
   CHANNELS 3 Yrotation Xrotation Zrotation
   JOINT Chest3
   {
    OFFSET 0.000000 10.628653 0.003331
    CHANNELS 3 Yrotation Xrotation Zrotation
    JOINT Chest4
    {
     OFFSET 0.000000 10.616789 0.003334
     CHANNELS 3 Yrotation Xrotation Zrotation
     JOINT Neck
     {
      OFFSET 0.000000 14.863263 0.000000
      CHANNELS 3 Yrotation Xrotation Zrotation
      JOINT Head
      {
       OFFSET 0.000000 9.883432 -0.007164
       CHANNELS 3 Yrotation Xrotation Zrotation
       End Site
       {
        OFFSET 0.000000 18.374284 -0.000963
       }
      }
     }
     JOINT RightCollar
     {
      OFFSET -3.226349 8.329632 0.000000
      CHANNELS 3 Yrotation Xrotation Zrotation
      JOINT RightShoulder
      {
       OFFSET -15.005172 0.000000 0.000000
       CHANNELS 3 Yrotation Xrotation Zrotation
       JOINT RightElbow
       {
        OFFSET -32.060772 0.000000 0.000000
        CHANNELS 3 Yrotation Xrotation Zrotation
        JOINT RightWrist
        {
         OFFSET -26.219035 0.000000 0.000000
         CHANNELS 3 Yrotation Xrotation Zrotation
         End Site
         {
          OFFSET -19.605622 0.000000 0.000000
         }
        }
       }
      }
     }
     JOINT LeftCollar
     {
      OFFSET 3.226349 8.329632 0.000000
      CHANNELS 3 Yrotation Xrotation Zrotation
      JOINT LeftShoulder
      {
       OFFSET 15.005172 0.000000 0.000000
       CHANNELS 3 Yrotation Xrotation Zrotation
       JOINT LeftElbow
       {
        OFFSET 32.060772 0.000000 0.000000
        CHANNELS 3 Yrotation Xrotation Zrotation
        JOINT LeftWrist
        {
         OFFSET 26.219035 0.000000 0.000000
         CHANNELS 3 Yrotation Xrotation Zrotation
         End Site
         {
          OFFSET 19.605622 0.000000 0.000000
         }
        }
       }
      }
     }
    }
   }
  }
 }
 JOINT RightHip
 {
  OFFSET -8.580723 -0.006978 0.000775
  CHANNELS 3 Yrotation Xrotation Zrotation
  JOINT RightKnee
  {
   OFFSET 0.000000 -44.536629 0.000787
   CHANNELS 3 Yrotation Xrotation Zrotation
   JOINT RightAnkle
   {
    OFFSET 0.000000 -43.528603 0.001328
    CHANNELS 3 Yrotation Xrotation Zrotation
    JOINT RightToe
    {
     OFFSET 0.000000 -7.259351 16.426635
     CHANNELS 3 Yrotation Xrotation Zrotation
     End Site
     {
      OFFSET 0.000000 -1.634445 7.029403
     }
    }
   }
  }
 }
 JOINT LeftHip
 {
  OFFSET 8.580723 -0.009328 0.001036
  CHANNELS 3 Yrotation Xrotation Zrotation
  JOINT LeftKnee
  {
   OFFSET 0.000000 -44.536629 0.000787
   CHANNELS 3 Yrotation Xrotation Zrotation
   JOINT LeftAnkle
   {
    OFFSET 0.000000 -43.528603 0.001328
    CHANNELS 3 Yrotation Xrotation Zrotation
    JOINT LeftToe
    {
     OFFSET 0.000000 -7.259351 16.426635
     CHANNELS 3 Yrotation Xrotation Zrotation
     End Site
     {
      OFFSET 0.000000 -1.634445 7.029403
     }
    }
   }
  }
 }
}
MOTION
Frames: 14
Frame Time: 0.004167
53.766587 92.838754 225.161886 22.837956 38.698133 5.102788 3.030250 6.196392 -1.653074 1.445499 -3.082676 -0.774426 1.445038 2.735904 -0.627584 1.037378 7.886937 -0.481251 -1.896207 5.174936 1.288375 -4.581686 -26.330707 3.687331 -7.147767 7.465779 3.381248 0.775967 -22.360469 79.814592 74.841384 -1.084213 11.085780 9.082649 -5.761279 -7.815151 -4.686931 3.364419 -6.152678 21.868015 7.521794 -58.884992 -55.345657 -16.482909 -20.735295 -21.388291 -11.519852 15.559008 -0.706263 -33.116976 -4.218564 -5.485941 73.540513 4.805917 -7.866776 25.159116 11.131948 -0.000000 0.000000 0.000000 19.607391 -65.690372 -18.041323 3.068520 37.496130 -0.732138 2.327530 -14.292194 -5.227527 0.000000 -0.000000 -0.000000
54.190471 92.672392 226.777131 22.971515 38.523829 5.192771 2.893375 6.270145 -1.714373 1.388406 -3.049739 -0.800199 1.388036 2.768994 -0.659160 0.992387 7.911729 -0.504988 -1.877626 5.100124 1.349811 -4.583860 -26.466983 3.807380 -7.391306 7.830964 3.738328 -0.525055 -21.738279 80.361994 71.541234 -1.178598 11.185703 9.021427 -5.972611 -7.920442 -4.909362 3.702581 -6.518120 20.009165 5.842224 -59.857647 -55.580583 -16.704217 -19.873507 -21.506555 -11.648444 15.371483 -1.098984 -34.644287 -4.260861 -4.998219 76.392972 5.022894 -8.889287 24.335542 9.984943 0.000000 -0.000000 -0.000000 18.233171 -64.854127 -16.805775 3.472638 37.559475 -0.635428 2.350825 -14.487717 -4.341812 0.000000 0.000000 0.000000
54.622670 92.490392 228.384987 23.117413 38.359550 5.309097 2.754342 6.327103 -1.779792 1.330551 -3.024241 -0.827628 1.330258 2.794643 -0.692467 0.946696 7.930940 -0.530002 -1.860953 5.022261 1.404258 -4.586356 -26.609183 3.914646 -7.631241 8.178819 4.084975 -1.916579 -21.118771 80.896167 68.040529 -1.198224 11.300910 8.925230 -6.187666 -8.004438 -5.142890 4.034948 -6.902517 18.121486 4.103144 -60.730471 -55.839716 -16.922274 -18.985183 -21.623637 -11.790253 15.174906 -1.599137 -36.250066 -4.270024 -4.608643 79.213637 5.048805 -10.036866 23.501700 8.744772 -0.000000 -0.000000 0.000000 16.763567 -64.042973 -15.523252 3.915556 37.664628 -0.559670 2.365323 -14.724082 -3.398798 -0.000000 -0.000000 0.000000
55.060468 92.297735 229.987240 23.276216 38.205269 5.444410 2.614098 6.368470 -1.844810 1.272093 -3.005626 -0.854746 1.271862 2.813404 -0.725520 0.900565 7.944991 -0.554797 -1.847905 4.941726 1.451199 -4.592348 -26.756557 4.009006 -7.858138 8.498800 4.419811 -3.356885 -20.473656 81.395225 64.411674 -1.126025 11.394193 8.797280 -6.400588 -8.062252 -5.384005 4.349847 -7.295457 16.234827 2.315849 -61.512375 -56.125514 -17.120760 -18.093832 -21.738170 -11.938589 14.968424 -2.182381 -37.920160 -4.242134 -4.428721 81.967425 4.788534 -11.254647 22.647055 7.461816 0.000000 -0.000000 -0.000000 15.266028 -63.237767 -14.245106 4.366589 37.795535 -0.503455 2.376374 -15.005405 -2.442168 0.000000 0.000000 0.000000
55.501147 92.099398 231.585677 23.448558 38.060973 5.591399 2.473595 6.395489 -1.904909 1.213189 -2.993326 -0.879584 1.213008 2.825841 -0.756335 0.854256 7.954309 -0.577873 -1.840171 4.858901 1.490111 -4.604951 -26.908343 4.090314 -8.062612 8.780187 4.741756 -4.804300 -19.776502 81.835900 60.728231 -0.960381 11.430199 8.641215 -6.605013 -8.090037 -5.628998 4.635808 -7.686253 14.379507 0.491001 -62.216440 -56.439075 -17.285255 -17.224599 -21.848249 -12.087019 14.750682 -2.824319 -39.640198 -4.174519 -4.741750 84.618654 3.976374 -12.488098 21.765784 6.181651 0.000000 -0.000000 -0.000000 13.804479 -62.421609 -13.018620 4.795599 37.936068 -0.464556 2.388035 -15.336113 -1.515475 -0.000000 0.000000 0.000000
55.941989 91.900362 233.182087 23.635132 37.926676 5.742791 2.333773 6.409440 -1.955570 1.153992 -2.986765 -0.900171 1.153850 2.832530 -0.782927 0.808024 7.959330 -0.597734 -1.839414 4.774170 1.520457 -4.627230 -27.063769 4.158394 -8.235299 9.012115 5.049980 -6.217524 -19.002657 82.194050 57.063732 -0.714559 11.379225 8.461214 -6.794359 -8.084957 -5.873977 4.881565 -8.063956 12.586931 -1.361897 -62.859770 -56.780288 -17.403613 -16.404261 -21.951422 -12.229431 14.519796 -3.500147 -41.395608 -4.066176 -6.688340 87.129597 1.490650 -13.683433 20.857029 4.945106 -0.000000 0.000000 -0.000000 12.439452 -61.579776 -11.887180 5.173118 38.070027 -0.439786 2.403173 -15.721054 -0.662177 0.000000 0.000000 0.000000
56.380278 91.705605 234.778255 23.836682 37.802421 5.891349 2.195555 6.411632 -1.992276 1.094649 -2.985358 -0.914538 1.094538 2.834055 -0.803313 0.762121 7.960495 -0.612882 -1.847275 4.687914 1.541690 -4.662200 -27.222067 4.213042 -8.366825 9.183618 5.343839 -7.556106 -18.128922 82.445456 53.490626 -0.414662 11.220546 8.262098 -6.962133 -8.045108 -6.114903 5.076058 -8.417370 10.890212 -3.234810 -63.463279 -57.148050 -17.466337 -15.661149 -22.044687 -12.360084 14.273337 -4.184218 -43.171695 -3.918214 -28.676929 89.420474 -21.056711 -14.788069 19.924632 3.788472 -0.000000 -0.000000 0.000000 11.227730 -60.699435 -10.889919 5.470509 38.181098 -0.424833 2.423689 -16.165492 0.074286 0.000000 -0.000000 0.000000
56.813297 91.520107 236.375969 24.053995 37.688288 6.029866 2.059840 6.403402 -2.010513 1.035297 -2.988513 -0.920712 1.035207 2.831004 -0.815507 0.716792 7.958249 -0.621818 -1.865371 4.600510 1.553249 -4.712835 -27.382474 4.254026 -8.447784 9.283664 5.622774 -8.781019 -17.132982 82.566845 50.079654 -0.096422 10.944633 8.049415 -7.102231 -7.969377 -6.347632 5.208414 -8.735093 9.324782 -5.121209 -64.051437 -57.540530 -17.466950 -15.025002 -22.124511 -12.473666 14.008324 -4.849519 -44.953743 -3.734333 -170.872851 88.350177 -163.809211 -15.751030 18.976462 2.744007 -0.000000 0.000000 -0.000000 10.221777 -59.769172 -10.061140 5.660149 38.252783 -0.414083 2.450838 -16.675014 0.650386 0.000000 0.000000 0.000000
57.238327 91.348845 237.977018 24.287895 37.584402 6.151162 1.927498 6.386102 -2.005774 0.976064 -2.995638 -0.916721 0.975989 2.823972 -0.817525 0.672275 7.953040 -0.623046 -1.895302 4.512327 1.554562 -4.782072 -27.544242 4.281093 -8.468719 9.301202 5.886184 -9.855265 -15.992601 82.537096 46.899726 0.198588 10.553848 7.829496 -7.209218 -7.857275 -6.567981 5.267924 -9.005572 7.928987 -7.015794 -64.652020 -57.955443 -17.402354 -14.526765 -22.186867 -12.565346 13.721234 -5.467081 -46.727146 -3.521318 -175.661917 86.463281 -169.129447 -16.523262 18.023442 1.840822 -0.000000 0.000000 -0.000000 9.469129 -58.778366 -9.429669 5.715623 38.268298 -0.400456 2.485691 -17.255333 1.022338 -0.000000 0.000000 -0.000000
57.652652 91.196801 239.583187 24.539233 37.490942 6.248079 1.799373 6.361093 -1.973554 0.917069 -3.006137 -0.900590 0.917001 2.813551 -0.807382 0.628801 7.945314 -0.615068 -1.938654 4.423719 1.545048 -4.872823 -27.706650 4.293971 -8.420099 9.225203 6.133271 -10.744461 -14.684640 82.338567 44.018217 0.426740 10.061398 7.609484 -7.278585 -7.708728 -6.771801 5.244009 -9.217170 6.744653 -8.913834 -65.295873 -58.390312 -17.273174 -14.198339 -22.227277 -12.630812 13.408023 -6.005337 -48.477537 -3.289549 -176.932887 84.842082 -170.881768 -17.057870 17.078324 1.106166 -0.000000 -0.000000 0.000000 9.011878 -57.716462 -9.018261 5.611905 38.210456 -0.375247 2.529699 -17.912011 1.145864 -0.000000 0.000000 0.000000
58.057425 91.065105 241.186490 24.832139 37.411823 6.347401 1.677513 6.327107 -1.915252 0.859314 -3.020606 -0.872956 0.859254 2.799141 -0.785610 0.587100 7.934609 -0.598291 -2.012445 4.326253 1.521303 -5.018690 -27.884516 4.296291 -8.269028 9.012397 6.382984 -11.478572 -13.197262 81.952063 41.241641 0.590944 9.443050 7.365161 -7.289743 -7.515004 -6.961610 5.139175 -9.385608 5.808694 -10.887065 -66.040937 -58.812219 -17.031583 -14.069422 -22.249534 -12.693701 13.056832 -6.558716 -50.256924 -2.978734 -177.195588 83.454148 -171.639579 -17.375249 16.133629 0.491396 -0.000000 -0.000000 -0.000000 8.823612 -56.607967 -8.827186 5.335311 38.123543 -0.336734 2.587475 -18.692040 1.010431 -0.000000 -0.000000 0.000000
58.456344 90.949048 242.779893 25.181119 37.349136 6.474053 1.562212 6.281787 -1.836660 0.803264 -3.040118 -0.836382 0.803224 2.779670 -0.754721 0.547353 7.920112 -0.574619 -2.125567 4.214039 1.481661 -5.237554 -28.088269 4.290461 -8.006056 8.646168 6.647537 -12.126441 -11.551116 81.391506 38.368833 0.702804 8.698283 7.077008 -7.227033 -7.277755 -7.142849 4.967128 -9.532896 5.113237 -12.986961 -66.910597 -59.195559 -16.663413 -14.137963 -22.259468 -12.778541 12.664465 -7.235090 -52.113051 -2.528803 -176.802978 82.238234 -171.822044 -17.538694 15.178178 -0.074411 -0.000000 0.000000 -0.000000 8.816539 -55.482782 -8.805132 4.908826 38.053172 -0.286559 2.660637 -19.618638 0.656722 0.000000 -0.000000 -0.000000
58.850509 90.844844 244.366616 25.572670 37.300429 6.618164 1.451659 6.224866 -1.739893 0.748241 -3.064793 -0.791792 0.748223 2.755027 -0.715712 0.508969 7.901741 -0.544804 -2.267408 4.091228 1.428151 -5.508682 -28.310651 4.274343 -7.656529 8.155814 6.915366 -12.712834 -9.768898 80.691748 35.455251 0.739951 7.882870 6.759543 -7.096363 -7.012197 -7.315898 4.734067 -9.656979 4.634715 -15.176988 -67.885602 -59.550990 -16.221091 -14.384421 -22.255298 -12.882332 12.239365 -8.019843 -54.025458 -1.954221 -176.146993 81.192863 -171.800021 -17.567738 14.219135 -0.596681 -0.000000 -0.000000 -0.000000 8.941660 -54.337345 -8.897987 4.363239 37.983919 -0.220570 2.747482 -20.661581 0.116662 0.000000 -0.000000 0.000000
59.241020 90.748704 245.949878 25.993338 37.263366 6.769922 1.344036 6.156100 -1.627088 0.693560 -3.094741 -0.740117 0.693564 2.725108 -0.669586 0.471355 7.879418 -0.509605 -2.427372 3.961988 1.362822 -5.811279 -28.544421 4.245752 -7.245319 7.571095 7.175044 -13.260109 -7.872469 79.885594 32.557644 0.691170 7.050840 6.426526 -6.906630 -6.732381 -7.481234 4.446087 -9.755919 4.347173 -17.419724 -68.945063 -59.891401 -15.754400 -14.783806 -22.235247 -13.001411 11.789717 -8.896368 -55.973896 -1.271279 -175.411198 80.316307 -171.735847 -17.482366 13.263038 -1.079617 -0.000000 -0.000000 0.000000 9.156360 -53.167786 -9.058022 3.728906 37.900605 -0.135671 2.846549 -21.790877 -0.577780 -0.000000 0.000000 -0.000000
